<svg xmlns="http://www.w3.org/2000/svg" width="16.458" height="18.81" viewBox="0 0 16.458 18.81">
  <path id="Icon_awesome-calendar-check" data-name="Icon awesome-calendar-check" d="M16.017,5.878H.441A.441.441,0,0,1,0,5.437V4.115A1.763,1.763,0,0,1,1.763,2.351H3.527V.441A.441.441,0,0,1,3.968,0H5.437a.441.441,0,0,1,.441.441v1.91h4.7V.441A.441.441,0,0,1,11.021,0h1.469a.441.441,0,0,1,.441.441v1.91h1.763a1.763,1.763,0,0,1,1.763,1.763V5.437A.441.441,0,0,1,16.017,5.878ZM.441,7.054H16.017a.441.441,0,0,1,.441.441v9.552a1.763,1.763,0,0,1-1.763,1.763H1.763A1.763,1.763,0,0,1,0,17.046V7.494A.441.441,0,0,1,.441,7.054Zm12.244,3.525L11.65,9.535a.441.441,0,0,0-.623,0L7.131,13.4l-1.689-1.7a.441.441,0,0,0-.623,0L3.776,12.726a.441.441,0,0,0,0,.623l3.035,3.059a.441.441,0,0,0,.623,0l5.252-5.21a.441.441,0,0,0,0-.623Z"/>
</svg>

